<svg xmlns="http://www.w3.org/2000/svg" xmlns:xlink="http://www.w3.org/1999/xlink" preserveAspectRatio="xMidYMid" width="25" height="25" viewBox="0 0 25 25">
	<path d="M12.395,-0.001 C5.550,-0.001 0.002,5.549 0.002,12.398 C0.002,19.246 5.550,24.796 12.395,24.796 C19.240,24.796 24.787,19.246 24.787,12.398 C24.787,5.549 19.240,-0.001 12.395,-0.001 ZM12.395,1.032 C18.659,1.032 23.755,6.131 23.755,12.398 C23.755,15.155 22.767,17.685 21.128,19.655 C19.996,19.182 17.322,18.254 15.667,17.765 C15.526,17.721 15.504,17.714 15.504,17.126 C15.504,16.640 15.704,16.152 15.898,15.738 C16.109,15.288 16.359,14.533 16.449,13.855 C16.700,13.563 17.042,12.988 17.262,11.892 C17.455,10.926 17.365,10.574 17.237,10.244 C17.224,10.209 17.209,10.174 17.199,10.140 C17.151,9.914 17.218,8.737 17.383,7.824 C17.497,7.197 17.354,5.866 16.491,4.763 C15.947,4.066 14.905,3.211 13.002,3.092 C13.002,3.092 11.958,3.093 11.958,3.093 C10.087,3.211 9.045,4.066 8.500,4.763 C7.638,5.866 7.495,7.197 7.609,7.824 C7.775,8.737 7.841,9.914 7.793,10.136 C7.783,10.174 7.769,10.209 7.755,10.244 C7.628,10.574 7.537,10.926 7.731,11.892 C7.949,12.988 8.291,13.563 8.544,13.855 C8.632,14.533 8.882,15.288 9.094,15.738 C9.248,16.067 9.321,16.515 9.321,17.147 C9.321,17.735 9.299,17.742 9.167,17.784 C7.455,18.289 4.731,19.274 3.716,19.719 C2.045,17.740 1.035,15.185 1.035,12.398 C1.035,6.131 6.131,1.032 12.395,1.032 ZM4.464,20.525 C5.627,20.050 7.945,19.222 9.468,18.773 C10.354,18.492 10.354,17.747 10.354,17.147 C10.354,16.650 10.319,15.917 10.029,15.298 C9.829,14.873 9.601,14.146 9.551,13.576 C9.540,13.443 9.477,13.320 9.376,13.233 C9.230,13.104 8.933,12.635 8.743,11.689 C8.593,10.940 8.656,10.776 8.718,10.617 C8.744,10.550 8.769,10.483 8.790,10.408 C8.914,9.954 8.775,8.465 8.625,7.638 C8.560,7.279 8.642,6.258 9.314,5.399 C9.916,4.629 10.828,4.199 11.990,4.125 C11.990,4.125 12.970,4.124 12.970,4.124 C14.164,4.199 15.076,4.629 15.679,5.399 C16.350,6.258 16.432,7.279 16.366,7.638 C16.217,8.465 16.078,9.954 16.202,10.407 C16.223,10.483 16.247,10.550 16.274,10.617 C16.335,10.776 16.399,10.940 16.249,11.689 C16.060,12.635 15.761,13.104 15.615,13.233 C15.515,13.320 15.453,13.443 15.440,13.576 C15.391,14.146 15.163,14.873 14.964,15.298 C14.735,15.785 14.471,16.433 14.471,17.126 C14.471,17.725 14.471,18.471 15.366,18.754 C16.823,19.183 19.153,19.985 20.383,20.468 C18.329,22.504 15.506,23.763 12.395,23.763 C9.312,23.763 6.513,22.527 4.464,20.525 Z" fill="#181818" fill-rule="evenodd"/>
</svg>
