<svg xmlns="http://www.w3.org/2000/svg" xmlns:xlink="http://www.w3.org/1999/xlink" preserveAspectRatio="xMidYMid" width="19" height="27" viewBox="0 0 19 27">
	<path d="M14.839,27.186 C14.839,27.186 3.319,27.186 3.319,27.186 C1.492,27.186 0.006,25.889 0.006,24.294 C0.006,24.294 0.006,2.891 0.006,2.891 C0.006,1.297 1.492,-0.001 3.319,-0.001 C3.319,-0.001 14.839,-0.001 14.839,-0.001 C16.666,-0.001 18.152,1.297 18.152,2.891 C18.152,2.891 18.152,24.294 18.152,24.294 C18.152,25.889 16.666,27.186 14.839,27.186 ZM16.946,2.891 C16.946,1.935 16.001,1.156 14.839,1.156 C14.839,1.156 3.319,1.156 3.319,1.156 C2.158,1.156 1.212,1.935 1.212,2.891 C1.212,2.891 1.212,19.655 1.212,19.655 C1.212,19.655 16.946,19.655 16.946,19.655 C16.946,19.655 16.946,2.891 16.946,2.891 ZM16.946,20.812 C16.946,20.812 1.212,20.812 1.212,20.812 C1.212,20.812 1.212,24.294 1.212,24.294 C1.212,25.251 2.158,26.029 3.319,26.029 C3.319,26.029 14.839,26.029 14.839,26.029 C16.001,26.029 16.946,25.251 16.946,24.294 C16.946,24.294 16.946,20.812 16.946,20.812 ZM9.079,24.612 C8.419,24.612 7.883,24.099 7.883,23.465 C7.883,22.832 8.419,22.319 9.079,22.319 C9.739,22.319 10.275,22.832 10.275,23.465 C10.275,24.099 9.739,24.612 9.079,24.612 Z" fill="#181818" fill-rule="evenodd"/>
</svg>
